<?xml version="1.0"?>
<!-- Generated by SVGo -->
<svg width="86.202mm" height="105.252mm"
     viewBox="0.000 0.000 86.202 105.252"
     xmlns="http://www.w3.org/2000/svg" 
     xmlns:xlink="http://www.w3.org/1999/xlink">
<polygon points="81.202,100.252 5.001,100.252 5.001,5.001 81.202,5.001" style="fill:none;stroke-width:0.050000mm;stroke:black"/>
<polygon points="17.051,83.726 17.051,84.726 16.251,84.726 16.251,87.825 17.051,87.825 17.051,88.426 15.526,88.426 15.526,85.196 13.801,85.196 13.801,84.275 10.501,84.275 10.501,85.196 8.776,85.196 8.776,88.426 7.950,88.426 7.950,91.226 8.776,91.226 8.776,97.495 10.501,97.495 10.501,98.476 13.801,98.476 13.801,97.495 15.526,97.495 15.526,93.025 17.051,93.025 17.051,93.626 16.251,93.626 16.251,96.726 17.051,96.726 17.051,97.726 31.051,97.726 31.051,96.726 31.851,96.726 31.851,93.626 31.051,93.626 31.051,93.025 32.576,93.025 32.576,97.495 34.301,97.495 34.301,98.476 37.601,98.476 37.601,97.495 39.326,97.495 39.326,91.226 40.151,91.226 40.151,88.426 39.326,88.426 39.326,85.196 37.601,85.196 37.601,84.275 34.301,84.275 34.301,85.196 32.576,85.196 32.576,88.426 31.051,88.426 31.051,87.825 31.851,87.825 31.851,84.726 31.051,84.726 31.051,83.726" style="fill:none;stroke-width:0.050000mm;stroke:black"/>
<polygon points="45.626,83.726 45.626,84.726 44.826,84.726 44.826,87.825 45.626,87.825 45.626,93.626 44.826,93.626 44.826,96.726 45.626,96.726 45.626,97.726 59.626,97.726 59.626,96.726 60.426,96.726 60.426,93.626 59.626,93.626 59.626,87.825 60.426,87.825 60.426,84.726 59.626,84.726 59.626,83.726" style="fill:none;stroke-width:0.050000mm;stroke:black"/>
<polygon points="71.176,65.100 71.176,65.926 64.906,65.926 64.906,67.651 63.926,67.651 63.926,70.951 64.906,70.951 64.906,72.676 69.376,72.676 69.376,74.201 68.775,74.201 68.775,73.401 65.676,73.401 65.676,74.201 64.676,74.201 64.676,88.201 65.676,88.201 65.676,89.001 68.775,89.001 68.775,88.201 69.376,88.201 69.376,89.726 64.906,89.726 64.906,91.451 63.926,91.451 63.926,94.751 64.906,94.751 64.906,96.476 71.176,96.476 71.176,97.301 73.976,97.301 73.976,96.476 77.206,96.476 77.206,94.751 78.126,94.751 78.126,91.451 77.206,91.451 77.206,89.726 73.976,89.726 73.976,88.201 74.576,88.201 74.576,89.001 77.676,89.001 77.676,88.201 78.676,88.201 78.676,74.201 77.676,74.201 77.676,73.401 74.576,73.401 74.576,74.201 73.976,74.201 73.976,72.676 77.206,72.676 77.206,70.951 78.126,70.951 78.126,67.651 77.206,67.651 77.206,65.926 73.976,65.926 73.976,65.100" style="fill:none;stroke-width:0.050000mm;stroke:black"/>
<polygon points="7.526,64.676 7.526,65.676 6.726,65.676 6.726,68.775 7.526,68.775 7.526,74.576 6.726,74.576 6.726,77.676 7.526,77.676 7.526,78.676 21.526,78.676 21.526,77.676 22.326,77.676 22.326,74.576 21.526,74.576 21.526,68.775 22.326,68.775 22.326,65.676 21.526,65.676 21.526,64.676" style="fill:none;stroke-width:0.050000mm;stroke:black"/>
<polygon points="26.576,64.676 26.576,65.676 25.776,65.676 25.776,68.775 26.576,68.775 26.576,74.576 25.776,74.576 25.776,77.676 26.576,77.676 26.576,78.676 40.576,78.676 40.576,77.676 41.376,77.676 41.376,74.576 40.576,74.576 40.576,68.775 41.376,68.775 41.376,65.676 40.576,65.676 40.576,64.676" style="fill:none;stroke-width:0.050000mm;stroke:black"/>
<polygon points="45.626,64.676 45.626,65.676 44.826,65.676 44.826,68.775 45.626,68.775 45.626,74.576 44.826,74.576 44.826,77.676 45.626,77.676 45.626,78.676 59.626,78.676 59.626,77.676 60.426,77.676 60.426,74.576 59.626,74.576 59.626,68.775 60.426,68.775 60.426,65.676 59.626,65.676 59.626,64.676" style="fill:none;stroke-width:0.050000mm;stroke:black"/>
<polygon points="7.526,45.626 7.526,46.626 6.726,46.626 6.726,49.726 7.526,49.726 7.526,55.526 6.726,55.526 6.726,58.626 7.526,58.626 7.526,59.626 21.526,59.626 21.526,58.626 22.326,58.626 22.326,55.526 21.526,55.526 21.526,49.726 22.326,49.726 22.326,46.626 21.526,46.626 21.526,45.626" style="fill:none;stroke-width:0.050000mm;stroke:black"/>
<polygon points="26.576,45.626 26.576,46.626 25.776,46.626 25.776,49.726 26.576,49.726 26.576,55.526 25.776,55.526 25.776,58.626 26.576,58.626 26.576,59.626 40.576,59.626 40.576,58.626 41.376,58.626 41.376,55.526 40.576,55.526 40.576,49.726 41.376,49.726 41.376,46.626 40.576,46.626 40.576,45.626" style="fill:none;stroke-width:0.050000mm;stroke:black"/>
<polygon points="45.626,45.626 45.626,46.626 44.826,46.626 44.826,49.726 45.626,49.726 45.626,55.526 44.826,55.526 44.826,58.626 45.626,58.626 45.626,59.626 59.626,59.626 59.626,58.626 60.426,58.626 60.426,55.526 59.626,55.526 59.626,49.726 60.426,49.726 60.426,46.626 59.626,46.626 59.626,45.626" style="fill:none;stroke-width:0.050000mm;stroke:black"/>
<polygon points="64.676,45.626 64.676,46.626 63.876,46.626 63.876,49.726 64.676,49.726 64.676,55.526 63.876,55.526 63.876,58.626 64.676,58.626 64.676,59.626 78.676,59.626 78.676,58.626 79.476,58.626 79.476,55.526 78.676,55.526 78.676,49.726 79.476,49.726 79.476,46.626 78.676,46.626 78.676,45.626" style="fill:none;stroke-width:0.050000mm;stroke:black"/>
<polygon points="7.526,26.576 7.526,27.576 6.726,27.576 6.726,30.676 7.526,30.676 7.526,36.476 6.726,36.476 6.726,39.576 7.526,39.576 7.526,40.576 21.526,40.576 21.526,39.576 22.326,39.576 22.326,36.476 21.526,36.476 21.526,30.676 22.326,30.676 22.326,27.576 21.526,27.576 21.526,26.576" style="fill:none;stroke-width:0.050000mm;stroke:black"/>
<polygon points="26.576,26.576 26.576,27.576 25.776,27.576 25.776,30.676 26.576,30.676 26.576,36.476 25.776,36.476 25.776,39.576 26.576,39.576 26.576,40.576 40.576,40.576 40.576,39.576 41.376,39.576 41.376,36.476 40.576,36.476 40.576,30.676 41.376,30.676 41.376,27.576 40.576,27.576 40.576,26.576" style="fill:none;stroke-width:0.050000mm;stroke:black"/>
<polygon points="45.626,26.576 45.626,27.576 44.826,27.576 44.826,30.676 45.626,30.676 45.626,36.476 44.826,36.476 44.826,39.576 45.626,39.576 45.626,40.576 59.626,40.576 59.626,39.576 60.426,39.576 60.426,36.476 59.626,36.476 59.626,30.676 60.426,30.676 60.426,27.576 59.626,27.576 59.626,26.576" style="fill:none;stroke-width:0.050000mm;stroke:black"/>
<polygon points="64.676,26.576 64.676,27.576 63.876,27.576 63.876,30.676 64.676,30.676 64.676,36.476 63.876,36.476 63.876,39.576 64.676,39.576 64.676,40.576 78.676,40.576 78.676,39.576 79.476,39.576 79.476,36.476 78.676,36.476 78.676,30.676 79.476,30.676 79.476,27.576 78.676,27.576 78.676,26.576" style="fill:none;stroke-width:0.050000mm;stroke:black"/>
<polygon points="7.526,7.526 7.526,8.526 6.726,8.526 6.726,11.626 7.526,11.626 7.526,17.426 6.726,17.426 6.726,20.526 7.526,20.526 7.526,21.526 21.526,21.526 21.526,20.526 22.326,20.526 22.326,17.426 21.526,17.426 21.526,11.626 22.326,11.626 22.326,8.526 21.526,8.526 21.526,7.526" style="fill:none;stroke-width:0.050000mm;stroke:black"/>
<polygon points="26.576,7.526 26.576,8.526 25.776,8.526 25.776,11.626 26.576,11.626 26.576,17.426 25.776,17.426 25.776,20.526 26.576,20.526 26.576,21.526 40.576,21.526 40.576,20.526 41.376,20.526 41.376,17.426 40.576,17.426 40.576,11.626 41.376,11.626 41.376,8.526 40.576,8.526 40.576,7.526" style="fill:none;stroke-width:0.050000mm;stroke:black"/>
<polygon points="45.626,7.526 45.626,8.526 44.826,8.526 44.826,11.626 45.626,11.626 45.626,17.426 44.826,17.426 44.826,20.526 45.626,20.526 45.626,21.526 59.626,21.526 59.626,20.526 60.426,20.526 60.426,17.426 59.626,17.426 59.626,11.626 60.426,11.626 60.426,8.526 59.626,8.526 59.626,7.526" style="fill:none;stroke-width:0.050000mm;stroke:black"/>
<polygon points="64.676,7.526 64.676,8.526 63.876,8.526 63.876,11.626 64.676,11.626 64.676,17.426 63.876,17.426 63.876,20.526 64.676,20.526 64.676,21.526 78.676,21.526 78.676,20.526 79.476,20.526 79.476,17.426 78.676,17.426 78.676,11.626 79.476,11.626 79.476,8.526 78.676,8.526 78.676,7.526" style="fill:none;stroke-width:0.050000mm;stroke:black"/>
</svg>
